<svg width="24" height="29" fill="none" xmlns="http://www.w3.org/2000/svg"><path d="M12 1v1.385m6.763 2.703l1.015-.978m1.787 7.506H23m-4.238 6.529l1.015.979M4.224 4.11l1.014.978M1 11.616h1.436m1.788 7.507l1.015-.98m10.35 5.934H8.413m0-1.847h7.174m-2.63 0a20.74 20.74 0 01.376-3.994c.217-1.087.558-2.172 1.208-3.094.177-.256.382-.512.451-.826a.867.867 0 00-.153-.674.954.954 0 00-.602-.372c-.427-.063-.664.24-.867.55-.314.478-.765.793-1.37.794-.604.001-1.06-.316-1.37-.794-.203-.31-.441-.613-.867-.55a.952.952 0 00-.602.372.884.884 0 00-.153.674c.07.31.265.567.45.826.651.922.993 2.007 1.21 3.094a20.628 20.628 0 01.376 3.995M12 4.461a7.622 7.622 0 012.838.543c.9.36 1.717.887 2.405 1.552a7.114 7.114 0 012.166 4.814c.04.886-.054 1.79-.39 2.62-.81 1.994-2.7 3.387-3.231 5.513-.358 1.428-.177 2.897-.19 4.345-.005.538-.027 1.078-.007 1.615 0 0 0 .692-.956.692H9.37c-.956 0-.956-.692-.956-.692.02-.537 0-1.077-.005-1.615-.012-1.448.166-2.916-.19-4.345-.53-2.126-2.423-3.519-3.231-5.514-.336-.83-.432-1.733-.392-2.619A7.115 7.115 0 016.76 6.557a7.409 7.409 0 012.404-1.552c.9-.36 1.863-.544 2.836-.543zM9.371 26.154c0 .893 1.178 1.846 2.631 1.846 1.453 0 2.63-.953 2.63-1.846h-5.26z" stroke="#FFCC01" stroke-width="1.5" stroke-linecap="round" stroke-linejoin="round"/></svg>