<svg width="26" height="23" fill="none" xmlns="http://www.w3.org/2000/svg"><path d="M12.465 21.6v-5.947l-5.732-7.22L1 15.653v5.52a.427.427 0 00.427.427h11.038zm0 0h8.287a.427.427 0 00.427-.427v-5.52l-5.524-7.22H6.736m3.185 0l5.522 7.22m-2.548-7.22l5.519 7.22m-9.819-4.884h8.849m-6.819 2.548h8.764m-6.921 2.336h8.709M20.117 1v1.699m-2.252.933l-1.203-1.199M15.23 5.884h1.699m-.268 3.454l1.2-1.202m2.253 2.633v-1.7m3.454.269l-1.202-1.2M25 5.883h-1.7m.269-3.45l-1.201 1.2m-14.57 8.834l-.508 4.46h2.558l-4.174 5.096V18.41H3.411l4.387-5.943zm12.319-8.495a1.911 1.911 0 10.004 3.822 1.911 1.911 0 00-.006-3.822h.002z" stroke="#FFCC01" stroke-width="1.5" stroke-linecap="round" stroke-linejoin="round"/></svg>