<svg width="63" height="65" fill="none" xmlns="http://www.w3.org/2000/svg"><path d="M61.834 42.67l-6.282 10.878a1.262 1.262 0 01-1.715.458l-5.355-3.091a25.088 25.088 0 01-9.446 5.46v6.178a1.262 1.262 0 01-1.263 1.262H25.218a1.262 1.262 0 01-1.263-1.262v-6.177a25.09 25.09 0 01-9.446-5.461l-5.348 3.09a1.263 1.263 0 01-1.715-.459L1.165 42.669a1.263 1.263 0 01.463-1.715l5.355-3.093c-.8-3.591-.8-7.315 0-10.907l-5.355-3.091a1.262 1.262 0 01-.458-1.717l6.276-10.877a1.262 1.262 0 011.715-.46l5.355 3.093a25.112 25.112 0 019.446-5.46v-6.18A1.263 1.263 0 0125.225 1h12.56a1.262 1.262 0 011.262 1.262V8.44a25.113 25.113 0 019.436 5.463l5.354-3.091a1.262 1.262 0 011.715.458l6.282 10.877a1.263 1.263 0 01-.46 1.717l-5.355 3.089a25.067 25.067 0 010 10.91l5.355 3.092a1.263 1.263 0 01.46 1.715v0zm-41.63-7.126h10.049l-3.15 15.077 15.7-20.726H32.756l3.138-15.071-15.69 20.72z" stroke="#003B46" stroke-width="2" stroke-linecap="round" stroke-linejoin="round"/></svg>