<svg width="127" height="95" fill="none" xmlns="http://www.w3.org/2000/svg"><path d="M17.767 39.725v16.98H12.8v-2.512c-.511.87-1.233 1.551-2.167 2.043-.933.49-1.989.736-3.166.736-1.467 0-2.767-.357-3.9-1.071-1.111-.715-1.99-1.73-2.634-3.048C.311 51.513 0 49.973 0 48.231c0-1.741.311-3.293.933-4.655.645-1.362 1.534-2.41 2.667-3.148 1.133-.759 2.422-1.138 3.867-1.138 1.177 0 2.233.256 3.166.77.934.513 1.656 1.206 2.167 2.076v-2.411h4.967zM8.933 53.121c1.245 0 2.2-.424 2.867-1.273.667-.848 1-2.076 1-3.684 0-1.607-.333-2.835-1-3.684-.667-.87-1.622-1.306-2.867-1.306-1.244 0-2.21.447-2.9 1.34C5.344 45.407 5 46.646 5 48.231c0 1.586.333 2.802 1 3.65.689.827 1.667 1.24 2.933 1.24zM37.63 39.725v16.98h-4.9v-2.479c-.534.893-1.234 1.574-2.1 2.043-.867.469-1.845.703-2.934.703-2.111 0-3.689-.591-4.733-1.775-1.045-1.183-1.567-2.97-1.567-5.358V39.725h5.034v10.214c0 2.054.877 3.081 2.633 3.081 1.044 0 1.889-.357 2.533-1.071.645-.715.967-1.652.967-2.813v-9.411h5.066zm13.581-.402c.711 0 1.311.112 1.8.335l-.033 4.622c-.822-.38-1.645-.57-2.467-.57-1.333 0-2.355.369-3.067 1.105-.689.715-1.033 1.72-1.033 3.015v8.874h-5.033V44.581c0-1.808-.09-3.427-.267-4.856h4.733l.334 2.914c.422-1.072 1.078-1.887 1.966-2.445.912-.58 1.934-.87 3.067-.87zm3.505.402h5.034v16.98h-5.034v-16.98zm5.2-7.97v4.755H54.55v-4.756h5.366zm14.047 7.535c4 0 6 2.377 6 7.133v10.281H74.93V46.657c0-1.183-.222-2.042-.667-2.578-.422-.559-1.1-.838-2.033-.838-1.111 0-2 .358-2.667 1.072-.666.715-1 1.675-1 2.88v9.511H63.53V44.581c0-1.808-.089-3.427-.267-4.856h4.734l.333 2.68c.6-1.005 1.378-1.776 2.333-2.312.978-.536 2.078-.803 3.3-.803zm21.343 17.414l-6.633-7.602v7.602h-5.034V32.056h5.034v14.97l6.333-7.268h6.033l-7.166 8.139 7.6 8.807h-6.167zm15.012.268c-1.8 0-3.378-.357-4.733-1.071a7.507 7.507 0 01-3.1-3.082c-.711-1.34-1.067-2.902-1.067-4.688 0-1.786.356-3.349 1.067-4.689a7.506 7.506 0 013.1-3.08c1.355-.715 2.933-1.072 4.733-1.072 1.778 0 3.333.357 4.667 1.071a7.307 7.307 0 013.066 3.081c.734 1.34 1.1 2.903 1.1 4.689s-.366 3.349-1.1 4.688a7.307 7.307 0 01-3.066 3.082c-1.334.714-2.889 1.071-4.667 1.071zm0-3.851c1.245 0 2.189-.413 2.833-1.24.667-.825 1-2.076 1-3.75 0-1.652-.333-2.891-1-3.717-.644-.849-1.588-1.273-2.833-1.273-1.267 0-2.233.424-2.9 1.273-.667.826-1 2.065-1 3.717 0 3.327 1.3 4.99 3.9 4.99z" fill="#292929"/><path d="M22.285 36.154L58.27 0l-9.848 36.154H22.285zM40.846 61H16.982l-5.303 11.036L16.603 78 8.648 94.87 31.5 78l-4.29-5.964L40.845 61z" fill="#F9BA32"/><path d="M122.867 31.558c.714 0 1.361.17 1.941.512a3.6 3.6 0 011.379 1.385c.339.582.509 1.229.509 1.94 0 .717-.17 1.37-.509 1.96a3.7 3.7 0 01-1.379 1.385 3.794 3.794 0 01-1.941.512c-.714 0-1.365-.17-1.952-.512a3.802 3.802 0 01-1.378-1.385 3.917 3.917 0 01-.499-1.96c0-.718.166-1.368.499-1.95a3.72 3.72 0 011.378-1.375 3.816 3.816 0 011.952-.512zm2.291 6.063c.268-.284.474-.614.615-.99a3.41 3.41 0 00.223-1.237c0-.596-.135-1.136-.403-1.62a2.95 2.95 0 00-1.125-1.14 3.11 3.11 0 00-1.601-.415c-.601 0-1.142.138-1.623.415a2.96 2.96 0 00-1.113 1.14 3.273 3.273 0 00-.404 1.62c0 .604.135 1.151.404 1.641a2.96 2.96 0 001.113 1.14 3.192 3.192 0 001.623.416c.445 0 .859-.078 1.241-.234a3.016 3.016 0 001.007-.682h-1.506l-.721-1.47c-.064-.115-.138-.171-.223-.171h-.254v1.64H121v-4.56h2.164c.551 0 .976.131 1.273.394.297.263.445.615.445 1.055 0 .334-.095.625-.286.874-.184.241-.449.408-.796.5a.9.9 0 01.435.16c.141.093.255.217.339.373l.584 1.151zm-2.174-2.568c.19 0 .328-.032.413-.096.092-.064.138-.17.138-.32 0-.163-.046-.276-.138-.34-.085-.071-.223-.107-.413-.107h-.584v.863h.584z" fill="#292929"/></svg>