<svg width="256" height="256" fill="none" xmlns="http://www.w3.org/2000/svg"><path fill="#003B47" d="M0 0h256v256H0z"/><path d="M83.375 120.669v16.527h-4.857v-2.445c-.5.848-1.206 1.51-2.119 1.989-.913.478-1.945.717-3.097.717-1.434 0-2.706-.348-3.814-1.043-1.087-.696-1.945-1.684-2.575-2.967-.609-1.303-.913-2.803-.913-4.497 0-1.695.304-3.206.913-4.532.63-1.325 1.5-2.347 2.608-3.064 1.108-.739 2.369-1.108 3.781-1.108 1.152 0 2.184.25 3.097.75.913.5 1.62 1.173 2.12 2.02v-2.346h4.856v-.001zm-8.638 13.04c1.217 0 2.151-.414 2.803-1.24.652-.825.978-2.02.978-3.585s-.326-2.76-.978-3.586c-.652-.848-1.586-1.272-2.803-1.272-1.217 0-2.163.435-2.837 1.304-.673.87-1.01 2.076-1.01 3.619 0 1.543.326 2.727.978 3.553.674.804 1.63 1.206 2.869 1.206v.001zm28.063-13.04v16.527h-4.79v-2.412c-.522.87-1.207 1.532-2.054 1.989-.848.456-1.804.684-2.869.684-2.064 0-3.607-.576-4.629-1.728-1.021-1.151-1.532-2.89-1.532-5.215v-9.845h4.922v9.942c0 2 .859 3 2.576 3 1.021 0 1.847-.348 2.477-1.044.63-.695.946-1.608.946-2.738v-9.16h4.953zm13.283-.392c.696 0 1.282.109 1.76.326l-.032 4.5c-.804-.37-1.608-.555-2.413-.555-1.304 0-2.303.358-2.999 1.076-.673.695-1.01 1.673-1.01 2.934v8.638h-4.923v-11.8c0-1.76-.087-3.337-.26-4.727h4.629l.326 2.836c.413-1.044 1.054-1.837 1.923-2.38.891-.565 1.89-.848 2.999-.848zm3.428.392h4.922v16.527h-4.922v-16.527zm5.085-7.759v4.629h-5.248v-4.629h5.248zm13.738 7.335c3.912 0 5.868 2.314 5.868 6.943v10.008h-4.922v-9.78c0-1.151-.218-1.988-.652-2.51-.413-.543-1.076-.814-1.989-.814-1.087 0-1.956.347-2.608 1.043-.652.695-.978 1.63-.978 2.803v9.258h-4.922v-11.8c0-1.76-.087-3.337-.261-4.727h4.629l.326 2.608c.587-.979 1.347-1.728 2.282-2.25.956-.521 2.032-.782 3.227-.782zm20.873 16.951l-6.487-7.4v7.4h-4.923v-23.993h4.923v14.572l6.194-7.074h5.9l-7.009 7.922 7.433 8.573h-6.031zm14.681.261c-1.76 0-3.303-.348-4.629-1.043a7.341 7.341 0 01-3.032-3c-.695-1.303-1.043-2.824-1.043-4.563 0-1.739.348-3.26 1.043-4.564a7.333 7.333 0 013.032-2.999c1.326-.695 2.869-1.043 4.629-1.043 1.739 0 3.26.348 4.564 1.043a7.126 7.126 0 012.999 3c.717 1.303 1.076 2.824 1.076 4.563 0 1.739-.359 3.26-1.076 4.564a7.123 7.123 0 01-2.999 2.999c-1.304.695-2.825 1.043-4.564 1.043zm0-3.749c1.217 0 2.141-.402 2.771-1.206.652-.804.978-2.021.978-3.651 0-1.608-.326-2.814-.978-3.618-.63-.826-1.554-1.24-2.771-1.24-1.238 0-2.184.414-2.836 1.24-.652.804-.978 2.01-.978 3.618 0 3.238 1.272 4.857 3.814 4.857z" fill="#FEFEFE"/><path d="M87.794 117.192L122.986 82l-9.631 35.192H87.794zm18.152 23.338H82.608l-5.186 10.743 4.815 5.557-7.779 16.67 22.597-16.67-4.445-5.557 13.336-10.743z" fill="#F9BA32"/><path d="M186.161 112.719c.698 0 1.331.166 1.898.498a3.506 3.506 0 011.348 1.348c.332.567.498 1.196.498 1.888 0 .698-.166 1.334-.498 1.908a3.6 3.6 0 01-1.348 1.349 3.718 3.718 0 01-1.898.498 3.738 3.738 0 01-1.909-.498 3.71 3.71 0 01-1.348-1.349 3.803 3.803 0 01-.488-1.908c0-.699.163-1.331.488-1.898a3.628 3.628 0 011.348-1.338 3.738 3.738 0 011.909-.498zm2.24 5.902a2.86 2.86 0 00.602-.965c.147-.384.22-.792.217-1.203 0-.581-.131-1.107-.394-1.577a2.873 2.873 0 00-1.099-1.11 3.057 3.057 0 00-1.566-.404 3.129 3.129 0 00-1.587.404c-.464.27-.827.64-1.089 1.11-.263.47-.395.996-.395 1.577 0 .588.132 1.12.395 1.597.262.47.625.84 1.089 1.11.47.27.999.405 1.587.405.435 0 .84-.076 1.213-.229.381-.159.709-.38.986-.663h-1.473l-.706-1.432c-.062-.11-.134-.166-.217-.166h-.249v1.598h-1.38v-4.44h2.116c.539 0 .954.128 1.245.384.29.256.435.598.435 1.027 0 .325-.093.608-.28.85-.179.236-.439.398-.778.488.153.014.3.068.426.156.138.09.249.21.332.363l.57 1.12zm-2.126-2.5c.186 0 .321-.031.404-.093.09-.063.135-.166.135-.311 0-.16-.045-.27-.135-.332-.083-.07-.218-.104-.404-.104h-.571v.84h.571z" fill="#fff"/></svg>