<svg id="Capa_1" height="512" viewBox="0 0 512.001 512.001" width="512" xmlns="http://www.w3.org/2000/svg"><path d="M174.193 203.503c2.936 2.941 8.146 2.723 10.826-.448l36.056-40.929a7.5 7.5 0 00-11.256-9.916l-30.877 35.051-19.689-18.933c-2.984-2.87-7.733-2.777-10.604.208s-2.778 7.733.208 10.604zm71.308-18.371h106c4.143 0 7.5-3.357 7.5-7.5s-3.357-7.5-7.5-7.5h-106c-4.143 0-7.5 3.357-7.5 7.5s3.357 7.5 7.5 7.5zm-96.645 82.24l25.337 24.362c2.932 2.937 8.134 2.723 10.816-.438l36.109-40.827a7.501 7.501 0 00-11.236-9.938l-30.929 34.971-19.701-18.943a7.5 7.5 0 00-10.396 10.813zm96.645 5.629h106c4.143 0 7.5-3.357 7.5-7.5s-3.357-7.5-7.5-7.5h-106c-4.143 0-7.5 3.357-7.5 7.5s3.357 7.5 7.5 7.5zm106 76.131h-17.5c-4.143 0-7.5 3.357-7.5 7.5s3.357 7.5 7.5 7.5h17.5c4.143 0 7.5-3.357 7.5-7.5s-3.358-7.5-7.5-7.5zm-106 15h53.5c4.143 0 7.5-3.357 7.5-7.5s-3.357-7.5-7.5-7.5h-53.5c-4.143 0-7.5 3.357-7.5 7.5s3.357 7.5 7.5 7.5zm-85 23h46c4.143 0 7.5-3.357 7.5-7.5v-46c0-4.143-3.357-7.5-7.5-7.5h-46a7.499 7.499 0 00-7.5 7.5v46c0 4.143 3.357 7.5 7.5 7.5zm7.5-46h31v31h-31z"/><path d="M432.501 242.501c4.143 0 7.5-3.357 7.5-7.5v-179.5c0-9.649-7.851-17.5-17.5-17.5l-128.066-.02a38.575 38.575 0 00-12.212-27.646c-7.87-7.348-18.139-10.983-28.932-10.24-19.657 1.285-35.642 18.192-35.724 37.886l-128.066.02c-9.649 0-17.5 7.851-17.5 17.5v439c0 9.649 7.851 17.5 17.5 17.5h333c9.649 0 17.5-7.851 17.5-17.5v-224.5c0-4.143-3.357-7.5-7.5-7.5s-7.5 3.357-7.5 7.5v224.5c0 1.379-1.121 2.5-2.5 2.5h-333a2.502 2.502 0 01-2.5-2.5v-439c0-1.379 1.121-2.5 2.5-2.5h73.361v15h-53.361a7.499 7.499 0 00-7.5 7.5v399c0 4.143 3.357 7.5 7.5 7.5h33.5c4.143 0 7.5-3.357 7.5-7.5s-3.357-7.5-7.5-7.5h-26v-384h45.861v16.926c0 6.893 5.607 12.5 12.5 12.5h101.27c4.143 0 7.5-3.357 7.5-7.5s-3.357-7.5-7.5-7.5h-98.77V53.001h48.008c4.783.059 8.427-4.592 7.305-9.222-3.45-13.625 7.084-27.947 21.148-28.72 15.295-1.514 28.385 13.896 24.504 28.723-1.177 4.535 2.621 9.318 7.305 9.199l48.008.02v44.426h-22.508c-4.143 0-7.5 3.357-7.5 7.5s3.357 7.5 7.5 7.5h25.008c6.893 0 12.5-5.607 12.5-12.5V83.001h45.861v304h-72.5a7.499 7.499 0 00-7.5 7.5v72.5h-137c-4.143 0-7.5 3.357-7.5 7.5s3.357 7.5 7.5 7.5h144.5a7.583 7.583 0 005.304-2.196l80-80a7.592 7.592 0 002.196-5.304v-319c0-4.143-3.357-7.5-7.5-7.5H349.14v-15h73.361c1.379 0 2.5 1.121 2.5 2.5v179.5c0 4.143 3.357 7.5 7.5 7.5zm-102.5 213.894v-54.394h54.394z"/></svg>