<svg width="26" height="36" fill="none" xmlns="http://www.w3.org/2000/svg"><path d="M12.911 1C6.245 1 .822 6.423.822 13.089c0 2.45.624 5.034 1.855 7.68.976 2.098 2.335 4.242 4.038 6.37 2.89 3.614 5.738 5.907 5.858 6.003a.54.54 0 00.676 0c.12-.096 2.967-2.389 5.858-6.003 1.704-2.128 3.062-4.272 4.038-6.37 1.23-2.646 1.855-5.23 1.855-7.68C25 6.423 19.577 1 12.91 1zm9.258 19.3c-.938 2.018-2.247 4.086-3.893 6.145a42.715 42.715 0 01-5.365 5.569 42.717 42.717 0 01-5.365-5.569c-1.646-2.06-2.956-4.127-3.893-6.144-1.16-2.498-1.748-4.925-1.748-7.212 0-6.07 4.937-11.006 11.006-11.006S23.917 7.02 23.917 13.089c0 2.287-.588 4.714-1.748 7.212z" fill="#FFCC01" stroke="#FFCC01" stroke-width=".5"/><path d="M12.91 3.887c-5.073 0-9.201 4.128-9.201 9.202s4.128 9.202 9.202 9.202 9.202-4.128 9.202-9.202-4.128-9.202-9.202-9.202zm0 17.321c-4.476 0-8.118-3.642-8.118-8.12 0-4.476 3.642-8.118 8.119-8.118s8.12 3.642 8.12 8.119-3.643 8.12-8.12 8.12z" fill="#FFCC01" stroke="#FFCC01" stroke-width=".5"/><path d="M12.91 17.16a.546.546 0 00-.543.545c0 .299.245.544.544.544a.546.546 0 00.544-.544.546.546 0 00-.544-.544zm2.412-8.215a3.397 3.397 0 00-2.411-1.017 3.432 3.432 0 00-3.428 3.429.541.541 0 001.082 0 2.348 2.348 0 012.346-2.346c.61 0 1.195.248 1.646.7.451.451.7 1.035.7 1.646a2.36 2.36 0 01-1.67 2.247 1.688 1.688 0 00-1.217 1.622v.172a.541.541 0 001.082 0v-.172c0-.27.18-.506.445-.585a3.45 3.45 0 002.442-3.284c0-.9-.36-1.756-1.017-2.412zm1.631 25.542H8.869a.541.541 0 000 1.083h8.084a.541.541 0 000-1.083z" fill="#FFCC01" stroke="#FFCC01" stroke-width=".5"/></svg>