<svg width="63" height="67" fill="none" xmlns="http://www.w3.org/2000/svg"><path d="M19.166 52.868H10.75a6.01 6.01 0 01-6.009-6.009V22.831M43.19 52.868h8.408a6.008 6.008 0 006.007-6.009V22.831M11.35 30.64h7.208m32.431 0h-7.2m-28.835 3.605v-7.21m17.578-4.205H2.95a1.8 1.8 0 01-1.811-1.801V15.02a1.8 1.8 0 011.811-1.8h56.457a1.8 1.8 0 011.801 1.8v6.009a1.8 1.8 0 01-1.8 1.8H35.597m-14.636-9.61v-2.995a1.8 1.8 0 00-1.796-1.81h-7.214a1.803 1.803 0 00-1.803 1.81v2.995h10.813zm31.238 0v-2.995a1.804 1.804 0 00-1.81-1.81h-7.2a1.803 1.803 0 00-1.803 1.81v2.995H52.2zM18.152 40.853h9.984l-2.275 16.813 18.53-22.22h-10.82l2.798-17.423-18.218 22.83z" stroke="#003B46" stroke-width="2" stroke-linecap="round" stroke-linejoin="round"/></svg>