<svg width="42" height="38" fill="none" xmlns="http://www.w3.org/2000/svg"><path d="M41.272 9.188l.01.008.012.008c.176.122.206.236.206.296s-.03.173-.205.291l-.013.01-.013.009-4.974 3.858a3.844 3.844 0 01-.95.426c-.381.118-.76.184-1.04.184H22.06l-1.523-9.556h13.762c.355.011.706.073 1.044.183l.007.002.007.002c.334.098.652.242.946.43l4.97 3.85zM14.7 8.944h.5V1.056a.56.56 0 01.162-.394A.547.547 0 0115.75.5h2.1c.145 0 .285.058.388.162a.559.559 0 01.162.394v35.888a.56.56 0 01-.162.394.547.547 0 01-.388.162h-2.1a.547.547 0 01-.388-.162.559.559 0 01-.162-.394V18.5H7.694a3.73 3.73 0 01-1.042-.184l-.003-.001a3.734 3.734 0 01-.946-.423L.728 14.034l-.01-.008-.011-.008C.529 13.895.5 13.781.5 13.722c0-.063.031-.177.203-.293l.013-.009.012-.01 4.977-3.855c.225-.154.564-.307.944-.423h0l.006-.002a3.67 3.67 0 011.04-.186H14.7z" stroke="#FEFEFE"/></svg>