<svg width="39" height="39" fill="none" xmlns="http://www.w3.org/2000/svg"><path d="M3.695 11.89c0-1.057.592-1.627 1.777-1.71l4.564.031c.306 0 .51.156.613.466.47 1.554.995 2.895 1.577 4.023.582 1.13 1.343 2.429 2.282 3.9.082.185.215.279.399.279.143 0 .255-.073.337-.218l.092-.341.03-5.375c0-.373-.087-.621-.26-.745-.174-.125-.495-.218-.965-.28-.368-.062-.552-.29-.552-.683 0-.083.01-.145.031-.187.429-1.346 1.654-2.019 3.676-2.019L19.012 9c.776 0 1.419.197 1.93.59.51.394.765 1.015.765 1.864v7.052c.143.104.276.155.398.155.307 0 .572-.186.797-.559 2.246-3.19 3.461-5.322 3.645-6.4 0-.02.02-.072.061-.155.143-.31.378-.58.705-.807.327-.228.613-.383.858-.466a.6.6 0 01.275-.063h4.748l.307.032c.408 0 .725.196.95.59.08.124.137.259.168.404.03.145.05.29.061.435.01.145.015.227.015.248v.218c-.143.849-.505 1.755-1.087 2.718-.582.963-1.322 2.004-2.221 3.122-.899 1.118-1.46 1.853-1.685 2.205-.184.249-.276.477-.276.684 0 .165.082.352.246.559l4.472 5.716c.245.331.367.694.367 1.087 0 .477-.183.87-.55 1.18a2.278 2.278 0 01-1.318.529l-.52.03h-4.657a.924.924 0 00-.123.017.936.936 0 01-.122.015c-.45 0-.868-.197-1.256-.59-.143-.166-1.103-1.388-2.88-3.666a1.636 1.636 0 00-.428-.404 50.66 50.66 0 00-.322 1.43c-.133.62-.23 1.066-.29 1.335l-.093.528c-.204.725-.633 1.16-1.286 1.305l-.43.03h-3.001c-1.695 0-3.385-.786-5.07-2.36-1.685-1.574-3.2-3.609-4.549-6.104-1.348-2.496-2.604-5.4-3.768-8.714a2.523 2.523 0 01-.153-.9zm18.41 8.045a2.02 2.02 0 01-1.164-.357 1.126 1.126 0 01-.52-.979v-7.145c0-.414-.102-.71-.307-.885-.204-.176-.561-.264-1.072-.264l-1.746.062c-.878 0-1.542.155-1.991.466.898.435 1.348 1.139 1.348 2.112v5.468a1.902 1.902 0 01-.613 1.289c-.367.342-.776.512-1.225.512-.613 0-1.082-.3-1.41-.9-1.592-2.444-2.777-4.764-3.553-6.959l-.275-.808-4.074-.03c-.266 0-.414.015-.445.046-.03.03-.046.119-.046.264 0 .186.02.383.062.59l.643 1.74c1.715 4.494 3.579 8.035 5.59 10.624 2.012 2.589 3.988 3.883 5.928 3.883h3.063c.123 0 .215-.036.276-.109.061-.072.112-.212.153-.419l.061-.31.582-2.734c.163-.373.306-.622.429-.746.225-.228.49-.342.797-.342.49 0 .99.3 1.5.901L26.7 28.26c.164.27.337.404.521.404h5.054c.613 0 .92-.155.92-.466a.605.605 0 00-.093-.31l-4.441-5.623c-.348-.435-.521-.901-.521-1.398 0-.497.163-.974.49-1.43.265-.413.781-1.102 1.547-2.065a46.149 46.149 0 002.006-2.703c.572-.838.95-1.6 1.134-2.283l.092-.404a.488.488 0 01-.03-.202.74.74 0 00-.032-.233h-4.809a1.681 1.681 0 00-.735.56l-.184.59c-.51 1.429-1.848 3.634-4.013 6.617-.429.414-.929.62-1.5.62z" fill="#F9BA32"/><path d="M27.931 1H1.138v26.794l-.003 9.88h36.677V1H27.93z" stroke="#F9BA32" stroke-width="2" stroke-miterlimit="10"/></svg>