<svg width="64" height="65" fill="none" xmlns="http://www.w3.org/2000/svg"><path d="M29.85 19.84a10.01 10.01 0 10-17.64 6.478M19.84 1v4.71m-13.32.81l3.33 3.33M1 19.842h4.71m.809 13.323l3.33-3.336m28.833-9.992H33.97m-.806-13.322L29.827 9.85m5.918 48.263V64m5.888-5.887V64m-14.13 0H49.87m-20.29-5.874l3.58-32.4M47.82 58.1l-3.54-32.37M17.147 36.327h43.08M16.063 47.514h45.251m.92 9.42a1.183 1.183 0 01-1.183 1.184H16.302a1.184 1.184 0 01-1.184-1.184l2.944-30.027a1.184 1.184 0 011.184-1.184h38.867a1.184 1.184 0 011.183 1.184l2.937 30.027z" stroke="#003B46" stroke-width="2" stroke-linecap="round" stroke-linejoin="round"/></svg>