<?xml version="1.0" encoding="utf-8"?><svg xmlns="http://www.w3.org/2000/svg" xmlns:xlink="http://www.w3.org/1999/xlink"><symbol viewBox="0 0 19 16" id="arrow" xmlns="http://www.w3.org/2000/svg"><path fill-rule="evenodd" clip-rule="evenodd" d="M.5 8c0 .303.119.594.33.808.21.214.497.335.795.335h13.033l-4.83 4.904a1.153 1.153 0 000 1.618 1.117 1.117 0 001.592 0l6.75-6.856A1.143 1.143 0 0018.5 8a1.158 1.158 0 00-.33-.809L11.42.335a1.117 1.117 0 00-1.593 0 1.153 1.153 0 000 1.618l4.83 4.904H1.626c-.298 0-.585.12-.796.335C.62 7.406.5 7.697.5 8z"/></symbol><symbol viewBox="0 0 30 25" id="cart" xmlns="http://www.w3.org/2000/svg"><path d="M29.496 7.222a.718.718 0 00-.617-.327H7.452L6.194 2.613a3.318 3.318 0 00-.46-.992c-.194-.274-.4-.468-.617-.58a2.7 2.7 0 00-.569-.23A1.988 1.988 0 004.065.75H.75a.724.724 0 00-.532.218.754.754 0 00-.218.556c0 .13.032.254.097.375a.661.661 0 00.278.278.787.787 0 00.375.097h3.315a.66.66 0 01.181.024c.056.017.133.085.23.206.097.121.177.302.242.544L9 18.774a.878.878 0 00.411.484.693.693 0 00.315.073h15.451a.76.76 0 00.448-.145.717.717 0 00.278-.363l3.702-10.888a.777.777 0 00-.109-.713zm-4.85 10.56H10.33L7.863 8.444h19.903l-3.12 9.338zM23.12 20.88c-.532 0-.988.19-1.367.569a1.864 1.864 0 00-.569 1.366c0 .533.19.988.569 1.367.38.38.835.569 1.367.569s.988-.19 1.367-.569c.379-.379.569-.834.569-1.367 0-.532-.19-.987-.57-1.366a1.863 1.863 0 00-1.366-.569zm-11.968 0c-.355 0-.681.089-.98.266a1.95 1.95 0 00-.701.702c-.17.29-.254.613-.254.967 0 .533.19.988.568 1.367.38.38.835.569 1.367.569s.988-.19 1.367-.569a1.86 1.86 0 00.569-1.367c0-.128-.012-.258-.037-.387a1.726 1.726 0 00-.29-.69 2.103 2.103 0 00-.532-.531 1.724 1.724 0 00-.69-.29 2.095 2.095 0 00-.387-.037z"/></symbol><symbol viewBox="0 0 24 25" id="enter" xmlns="http://www.w3.org/2000/svg"><path d="M12.265.5C8.096.489 4.428 2.69 2.33 6.017c-.093.148.011.343.183.343h1.922a.427.427 0 00.336-.161 8.79 8.79 0 01.612-.684 9.663 9.663 0 013.081-2.118 9.473 9.473 0 013.77-.776 9.43 9.43 0 013.769.776 9.663 9.663 0 013.08 2.118 9.871 9.871 0 012.078 3.14 9.96 9.96 0 01.76 3.845c0 1.337-.257 2.629-.76 3.846a9.826 9.826 0 01-2.077 3.14 9.664 9.664 0 01-3.081 2.117 9.475 9.475 0 01-3.77.776 9.475 9.475 0 01-3.769-.776 9.664 9.664 0 01-3.08-2.118c-.217-.22-.419-.45-.613-.684a.431.431 0 00-.336-.161H2.514a.222.222 0 00-.183.343C4.425 22.3 8.077 24.5 12.235 24.5c6.456 0 11.699-5.305 11.764-11.877C24.065 5.945 18.814.517 12.265.5zM8.802 15.626v-2.121H.219c-.12 0-.219-.1-.219-.224V11.72c0-.123.098-.224.219-.224h8.583v-2.12c0-.188.213-.294.355-.176l3.879 3.125a.224.224 0 01.062.274.222.222 0 01-.062.078L9.157 15.8c-.142.115-.355.012-.355-.175z"/></symbol></svg>