<svg width="35" height="31" fill="none" xmlns="http://www.w3.org/2000/svg"><path d="M31.923.506L4.234 2.35c-.516.036-2.133.978-2.356 3.02L.027 22.478c-.096.893-.023 2.978 1.724 3.302l26.943 5.005c.17.033.343.048.514.048.652 0 3-.524 3.243-2.796l2.522-23.293c.236-2.178-1.086-4.372-3.05-4.238zM4.309 3.396l27.684-1.847a1.63 1.63 0 01.993.245l-14.088 12.76.017-.14-7.535-.746.391-3.25 7.583.357.36-2.99L9.48 7.732l-.42 3.495-5.271-7.579c.174-.152.355-.242.52-.253zM1.08 22.587L2.933 5.482c.033-.31.111-.616.225-.896l5.724 8.107-.37 3.078-7.418 7.623a3.255 3.255 0 01-.013-.805zm27.81 7.17L1.946 24.752c-.149-.027-.296-.127-.426-.285l6.785-6.972-.5 4.16 9.953 2.377.36-2.99-7.451-1.45.392-3.252 7.498 1.063.134-1.124.804-.703 1.748 2.33 8.766 11.687a1.76 1.76 0 01-1.12.165zM33.918 4.11l-2.522 23.293a3.035 3.035 0 01-.581 1.506L20.286 14.87 33.679 2.586c.214.436.3.967.24 1.524z" fill="#FEFEFE"/></svg>