<svg width="40" height="39" fill="none" xmlns="http://www.w3.org/2000/svg"><path d="M28.577 1H1.784v36.674h36.673V1h-9.88z" stroke="#F9BA32" stroke-width="2" stroke-miterlimit="10"/><path d="M22.954 5.705H18.77c-5.328-.053-6.009 3.245-6.009 6.814v2.595h-2.352a.7.7 0 00-.784.784v4.705a.698.698 0 00.784.784h2.352V33.15a.703.703 0 00.789.784h4.79c.463.053.838-.322.69-.784l.004-11.762h3.92a.698.698 0 00.784-.784v-4.705a.698.698 0 00-.784-.784H19.03l.005-2.352c.152-1.002.152-.84 1.082-.784h2.806c.218-.049.45-.022.613-.18.163-.159.257-.375.202-.604V6.489a.696.696 0 00-.783-.784zm-.839 4.617l-1.966-.075c-2.436 0-2.64 1.322-2.64 2.675l-.006 2.973a.838.838 0 00.838.84h3.83v3.029h-3.827a.84.84 0 00-.84.838v11.763h-3.175V20.603c0-.463-.315-.837-.78-.837h-2.356v-3.03h2.357a.838.838 0 00.593-.245c.156-.158.185-.372.185-.594v-3.38c0-3.516.71-5.19 4.44-5.19h3.346v2.995h.001z" fill="#F9BA32"/></svg>