<svg width="26" height="28" fill="none" xmlns="http://www.w3.org/2000/svg"><path d="M13.24 8.994a4.247 4.247 0 10-7.484 2.748M8.994 1v1.999m-5.652.343l1.413 1.413M1 8.994h1.999m.343 5.653l1.413-1.416m12.233-4.24h-2m-.341-5.652L13.23 4.755m.531 19.487v2.498m2.498-2.498v2.498m-5.995 0h9.49m-8.61-2.492l1.52-13.747m6.22 13.735l-1.502-13.734M5.87 14.998h18.278M5.41 19.745h19.2m.39 3.997a.502.502 0 01-.502.502H5.512a.502.502 0 01-.502-.502l1.25-12.74a.502.502 0 01.501-.502h16.49a.502.502 0 01.503.502L25 23.742z" stroke="#FFCC01" stroke-width="1.5" stroke-linecap="round" stroke-linejoin="round"/></svg>