<svg width="61" height="69" fill="none" xmlns="http://www.w3.org/2000/svg"><path d="M35.211 44.852a9.01 9.01 0 01-9.012-9.01v-15.62h24.03v15.62a9.01 9.01 0 01-9.01 9.01m-6.008 0h6.009m-6.009 0v2.403a1.802 1.802 0 001.801 1.803h2.403a1.803 1.803 0 001.805-1.803v-2.403M6.977 39.446v-7.208a7.81 7.81 0 017.81-7.81 7.81 7.81 0 017.802 7.81V59.27a7.81 7.81 0 0015.619 0V49.058M31.606 26.23h13.216m-13.216 6.008h13.216m-13.216 6.007h13.216m8.41-22.828v3.61a1.207 1.207 0 01-1.208 1.208H24.398a1.207 1.207 0 01-1.207-1.208v-3.61a1.208 1.208 0 011.207-1.208h5.407V4.003A3.001 3.001 0 0132.808 1h.6a3.002 3.002 0 013.004 3.003v10.213h3.6V4.003A3.002 3.002 0 0143.02 1h.602a3.003 3.003 0 013.003 3.003v10.213h5.407a1.208 1.208 0 011.2 1.2z" stroke="#003B46" stroke-width="2" stroke-linecap="round" stroke-linejoin="round"/></svg>