<svg width="61" height="67" fill="none" xmlns="http://www.w3.org/2000/svg"><path d="M43.672 9.946s-1.208 4.204-4.206 5.406c0 0-1.803.6-1.803 1.801s2.404 0 3.606 3.606c1.202 3.605-3.003 4.806-4.806 4.806s-7.21 0-7.21 3.003c0 3.004 1.803 6.007 7.21 6.007 5.406 0 9.01-6.007 9.01-6.007s.6 6.607 6.007 6.607c0 0-3.004 2.404-1.801 6.007 0 0 3.003 1.803 5.406-.6 0 0 .6 5.406-9.012 8.41 0 0-2.401 6.609 6.61 4.206M26.85 7.253a28.23 28.23 0 11-9.61 3.295l9.61-3.295zm-1.2 55.548c4.806 0 5.406-5.406 5.406-5.406-2.403-4.206 1.806-7.21 1.806-7.21 0-2.403-2.4-1.802-2.4-1.802-4.807 3.003-6.01 3.003-7.81.6-1.801-2.403-4.206-1.207-4.206-1.207 1.207 2.403.6 5.406.6 5.406-1.207 3.604-5.406 4.204-5.406 4.204l12.01 5.415zm-1.803-47.457c0-6.009 6.007-12.616 6.007-12.616C15.439 2.128 8.83 7.534 8.83 7.534c-12.315 10.813-6.008 24.03-6.008 24.03 12.617 1.8 21.025-10.213 21.025-16.22z" stroke="#003B46" stroke-width="2" stroke-linecap="round" stroke-linejoin="round"/></svg>