<svg width="26" height="21" fill="none" xmlns="http://www.w3.org/2000/svg"><path d="M6.952 1v1.152m-2.172.9l-.815-.815M3.88 5.224H2.728M3.965 8.21l.815-.814m2.172.9v1.152m2.172-2.052l.815.815m1.237-2.987h-1.152M9.94 2.237l-.815.815M19.24 13.48h3.457m-5.76 2.304h3.456m-8.061-2.304h3.456m-5.763 2.304h3.456M5.416 13.48h3.456m-5.76 2.304h3.456M9.256 5.416a2.304 2.304 0 11-4.608 0 2.304 2.304 0 014.608 0zM25 11.176h-3.456l-6.72 6.72h3.456l6.72-6.72zm-5.569 5.569v3.264h1.152v-4.417l-1.152 1.153zm-1.343-5.569h-3.456l-6.72 6.72h3.456l6.72-6.72zm-5.569 5.569v3.264h1.153v-4.417l-1.153 1.153zm-1.343-5.569H7.72L1 17.896h3.456l6.72-6.72zm-5.569 5.569v3.264h1.155v-4.417l-1.155 1.153z" stroke="#FFCC01" stroke-width="1.5" stroke-linecap="round" stroke-linejoin="round"/></svg>