<svg width="54" height="69" fill="none" xmlns="http://www.w3.org/2000/svg"><path d="M29.263 52.992a52.6 52.6 0 01.499-7.404c.115-.795.238-1.59.39-2.38.513-2.66 1.321-5.316 2.857-7.576.417-.626.901-1.252 1.066-2.022a2.204 2.204 0 00-1.784-2.56c-1.01-.155-1.571.586-2.051 1.345-.741 1.171-1.807 1.943-3.237 1.945-1.43.002-2.504-.774-3.238-1.945-.48-.76-1.044-1.5-2.05-1.346a2.202 2.202 0 00-1.784 2.56c.163.76.626 1.39 1.064 2.023 1.538 2.26 2.346 4.916 2.857 7.577.152.789.278 1.584.39 2.379a52.39 52.39 0 01.5 7.404M27 9.479a17.465 17.465 0 0112.391 5.13 17.71 17.71 0 015.121 11.789c.094 2.17-.13 4.382-.924 6.415-1.912 4.885-6.382 8.297-7.636 13.501-.845 3.497-.417 7.095-.45 10.642-.01 1.317-.063 2.64-.015 3.955 0 0 0 1.694-2.26 1.694H20.785c-2.26 0-2.26-1.694-2.26-1.694.048-1.315 0-2.638-.013-3.955-.027-3.547.392-7.143-.45-10.642-1.253-5.204-5.727-8.616-7.636-13.501-.795-2.035-1.02-4.245-.927-6.415a17.712 17.712 0 015.115-11.788 17.457 17.457 0 0112.39-5.131H27zM27 1v3.391V1zm15.985 10.012l2.4-2.395-2.4 2.395zM49.609 27H53h-3.391zm-6.626 15.987l2.398 2.397-2.398-2.397zM8.621 8.616l2.396 2.396L8.62 8.617zM1 26.997h3.395H1zm7.62 18.385l2.399-2.398-2.398 2.398zM20.788 62.6c0 2.187 2.783 4.522 6.218 4.522s6.217-2.335 6.217-4.522H20.787zm14.695-5.085H18.525h16.957zm-16.957-4.522H35.48 18.525z" stroke="#003B46" stroke-width="2" stroke-linecap="round" stroke-linejoin="round"/></svg>