<svg width="62" height="68" fill="none" xmlns="http://www.w3.org/2000/svg"><path d="M10.476 49.037h5.908M10.48 55.6h5.905m-5.905 6.56h5.905m37.398-13.123h-5.905m5.905 6.563h-5.905m5.905 6.56h-5.905M29.506 49.038h5.905M29.506 55.6h5.905m-5.905 6.56h5.905m21.37-27.32l-4.31-21.233H41.315l-5.097 22.678m3.785-16.77H29.507l-5.941 27.203M22.09 15.612v.556c0 1.537-1.299 2.615-2.836 2.615H6.57C3.408 18.775 1 16.15 1 12.99c0-3.162 2.595-5.817 5.747-5.817 0 0 2.03.089 3.823 1.885m-7.968 37.66L23.565 31.43v15.29l18.454-15.29v15.29L61 31.43v35.322H2.602V46.718zM28.296 8.503h5.528a3.554 3.554 0 110 7.109H17.636c-4.036 0-7.11-3.348-7.11-7.382 0-4.036 3.311-7.23 7.337-7.23 0 0 4.502 0 6.872 5.133a3.708 3.708 0 003.561 2.37z" stroke="#003B46" stroke-width="2" stroke-linecap="round" stroke-linejoin="round"/></svg>